<svg data-logo="logo" xmlns="http://www.w3.org/2000/svg" viewBox="0 0 250.52999877929688 44">
        <g style="opacity: 1;" id="logogram" transform="translate(0, 0.5)
    rotate(0 26.5 21.5)"><path d="M37.5 27.0752C37.5 20.4478 32.1274 15.0752 25.5 15.0752H15.5V27.0752H25.5V42.0752H37.5V27.0752Z" fill="#FF4D00"></path><path d="M0.5 28.0752C0.500001 35.8072 6.76801 42.0752 14.5 42.0752L22.5 42.0752L22.5 30.0752H14.5C13.3954 30.0752 12.5 29.1798 12.5 28.0752V27.0752L0.5 27.0752L0.5 28.0752Z" fill="#FF4D00"></path><path d="M25.5 0.0751953C40.4117 0.0751953 52.5 12.1635 52.5 27.0752V42.0752H40.5V27.0752C40.5 18.7909 33.7843 12.0752 25.5 12.0752H14.5C13.3954 12.0752 12.5 12.9706 12.5 14.0752V15.0752H0.500001V14.0752C0.500002 6.34321 6.76802 0.0751953 14.5 0.0751953H25.5Z" fill="#FF4D00"></path></g>
        <g style="opacity: 1;" id="logotype" transform="translate(59, 1.6499999999999986)"><path fill="#ffffff" d="M19.16 33.42L19.16 33.42Q15.66 33.42 13.07 31.86Q10.48 30.30 9.04 27.49Q7.61 24.67 7.61 20.92L7.61 20.92Q7.61 17.14 9.08 14.26Q10.55 11.37 13.32 9.72Q16.08 8.08 19.93 8.08L19.93 8.08Q24.24 8.08 27.09 10.14Q29.94 12.21 30.78 15.88L30.78 15.88L25.50 15.88Q24.97 14.27 23.55 13.35Q22.14 12.42 19.90 12.42L19.90 12.42Q17.52 12.42 15.84 13.47Q14.16 14.52 13.28 16.41Q12.41 18.30 12.41 20.92L12.41 20.92Q12.41 23.59 13.28 25.44Q14.16 27.29 15.78 28.26Q17.41 29.22 19.62 29.22L19.62 29.22Q22.84 29.22 24.50 27.49Q26.16 25.75 26.48 22.99L26.48 22.99L20.46 22.99L20.46 19.45L31.24 19.45L31.24 33L26.86 33L26.51 29.88L26.51 29.88Q25.74 31.04 24.71 31.83Q23.68 32.62 22.31 33.02Q20.95 33.42 19.16 33.42ZM40.93 40.70L35.93 40.70L40.20 31.04L39.15 31.04L32.08 15.36L37.22 15.36L42.26 26.73L42.26 26.73L46.81 15.36L51.82 15.36L40.93 40.70ZM57.70 33L52.97 33L52.97 15.36L57.14 15.36L57.52 17.70L57.52 17.70Q58.36 16.44 59.74 15.69Q61.13 14.94 62.91 14.94L62.91 14.94Q64.24 14.94 65.29 15.29Q66.34 15.64 67.16 16.30Q67.99 16.97 68.51 17.98L68.51 17.98L68.51 17.98Q69.49 16.55 71.06 15.74Q72.64 14.94 74.50 14.94L74.50 14.94Q76.81 14.94 78.34 15.87Q79.89 16.79 80.67 18.54Q81.46 20.29 81.46 22.85L81.46 22.85L81.46 33L76.77 33L76.77 23.27Q76.77 21.17 75.95 20.05Q75.13 18.93 73.41 18.93L73.41 18.93Q72.29 18.93 71.42 19.49Q70.54 20.05 70.07 21.10Q69.59 22.15 69.59 23.62L69.59 23.62L69.59 33L64.87 33L64.87 23.27Q64.87 21.17 64.03 20.05Q63.19 18.93 61.44 18.93L61.44 18.93Q60.36 18.93 59.50 19.49Q58.64 20.05 58.17 21.10Q57.70 22.15 57.70 23.62L57.70 23.62L57.70 33ZM94.90 33.42L94.90 33.42Q91.40 33.42 88.81 31.86Q86.22 30.30 84.78 27.49Q83.35 24.67 83.35 20.92L83.35 20.92Q83.35 17.14 84.82 14.26Q86.29 11.37 89.05 9.72Q91.82 8.08 95.67 8.08L95.67 8.08Q99.97 8.08 102.83 10.14Q105.68 12.21 106.52 15.88L106.52 15.88L101.23 15.88Q100.71 14.27 99.29 13.35Q97.88 12.42 95.63 12.42L95.63 12.42Q93.25 12.42 91.57 13.47Q89.89 14.52 89.02 16.41Q88.14 18.30 88.14 20.92L88.14 20.92Q88.14 23.59 89.02 25.44Q89.89 27.29 91.52 28.26Q93.15 29.22 95.35 29.22L95.35 29.22Q98.57 29.22 100.24 27.49Q101.90 25.75 102.22 22.99L102.22 22.99L96.19 22.99L96.19 19.45L106.97 19.45L106.97 33L102.60 33L102.25 29.88L102.25 29.88Q101.48 31.04 100.45 31.83Q99.41 32.62 98.05 33.02Q96.69 33.42 94.90 33.42ZM117.89 33.42L117.89 33.42Q115.23 33.42 113.19 32.28Q111.14 31.14 110.00 29.10Q108.86 27.05 108.86 24.35L108.86 24.35Q108.86 21.59 110.00 19.47Q111.14 17.35 113.17 16.15Q115.20 14.94 117.89 14.94L117.89 14.94Q120.52 14.94 122.48 16.09Q124.44 17.25 125.52 19.21Q126.61 21.17 126.61 23.66L126.61 23.66Q126.61 24.00 126.61 24.44Q126.61 24.88 126.54 25.34L126.54 25.34L112.22 25.34L112.22 22.46L121.85 22.46Q121.74 20.75 120.64 19.77Q119.54 18.79 117.89 18.79L117.89 18.79Q116.70 18.79 115.69 19.33Q114.67 19.88 114.10 20.99Q113.52 22.11 113.52 23.83L113.52 23.83L113.52 24.84Q113.52 26.28 114.06 27.35Q114.60 28.41 115.58 28.99Q116.56 29.57 117.86 29.57L117.86 29.57Q119.16 29.57 120.01 29.01Q120.87 28.45 121.29 27.57L121.29 27.57L126.12 27.57Q125.63 29.22 124.47 30.55Q123.32 31.88 121.64 32.65Q119.96 33.42 117.89 33.42ZM133.37 33L128.64 33L128.64 15.36L132.81 15.36L133.16 18.23L133.16 18.23Q133.96 16.76 135.45 15.85Q136.94 14.94 139 14.94L139 14.94Q141.21 14.94 142.71 15.85Q144.22 16.76 145.00 18.51Q145.79 20.26 145.79 22.81L145.79 22.81L145.79 33L141.10 33L141.10 23.27Q141.10 21.17 140.21 20.05Q139.31 18.93 137.46 18.93L137.46 18.93Q136.27 18.93 135.34 19.49Q134.41 20.05 133.89 21.08Q133.37 22.11 133.37 23.59L133.37 23.59L133.37 33ZM153.21 33L148.49 33L148.49 15.36L153.21 15.36L153.21 33ZM150.87 12.94L150.87 12.94Q149.61 12.94 148.78 12.19Q147.96 11.44 147.96 10.28L147.96 10.28Q147.96 9.13 148.78 8.38Q149.61 7.62 150.87 7.62L150.87 7.62Q152.16 7.62 152.98 8.38Q153.81 9.13 153.81 10.28L153.81 10.28Q153.81 11.44 152.98 12.19Q152.16 12.94 150.87 12.94ZM164.66 33.42L164.66 33.42Q162.00 33.42 159.93 32.23Q157.87 31.04 156.71 28.98Q155.56 26.91 155.56 24.25L155.56 24.25Q155.56 21.52 156.71 19.44Q157.87 17.35 159.93 16.15Q162.00 14.94 164.66 14.94L164.66 14.94Q168.05 14.94 170.36 16.72Q172.67 18.51 173.30 21.63L173.30 21.63L168.30 21.63Q167.98 20.40 166.98 19.70Q165.99 19 164.62 19L164.62 19Q163.40 19 162.43 19.61Q161.47 20.23 160.93 21.40Q160.39 22.57 160.39 24.18L160.39 24.18Q160.39 25.41 160.70 26.37Q161.02 27.33 161.58 28.01Q162.14 28.70 162.92 29.04Q163.71 29.39 164.62 29.39L164.62 29.39Q165.53 29.39 166.28 29.08Q167.04 28.77 167.56 28.19Q168.09 27.61 168.30 26.77L168.30 26.77L173.30 26.77Q172.67 29.81 170.34 31.62Q168.02 33.42 164.66 33.42ZM182.72 33.42L182.72 33.42Q180.30 33.42 178.52 32.65Q176.73 31.88 175.72 30.52Q174.70 29.15 174.56 27.43L174.56 27.43L179.25 27.43Q179.43 28.10 179.85 28.64Q180.27 29.18 180.97 29.50Q181.67 29.81 182.65 29.81L182.65 29.81Q183.59 29.81 184.19 29.55Q184.78 29.29 185.08 28.84Q185.38 28.38 185.38 27.89L185.38 27.89Q185.38 27.16 184.96 26.75Q184.54 26.35 183.73 26.11Q182.93 25.86 181.77 25.61L181.77 25.61Q180.51 25.37 179.30 25.00Q178.10 24.63 177.15 24.07Q176.21 23.52 175.65 22.64Q175.09 21.77 175.09 20.47L175.09 20.47Q175.09 18.89 175.93 17.65Q176.77 16.41 178.38 15.67Q179.99 14.94 182.26 14.94L182.26 14.94Q185.45 14.94 187.30 16.38Q189.16 17.81 189.51 20.33L189.51 20.33L185.06 20.33Q184.85 19.52 184.13 19.05Q183.42 18.58 182.23 18.58L182.23 18.58Q180.97 18.58 180.30 19.03Q179.64 19.49 179.64 20.23L179.64 20.23Q179.64 20.71 180.07 21.10Q180.51 21.48 181.32 21.75Q182.12 22.01 183.28 22.25L183.28 22.25Q185.31 22.67 186.85 23.22Q188.39 23.76 189.26 24.76Q190.14 25.75 190.14 27.64L190.14 27.64Q190.14 29.32 189.23 30.64Q188.32 31.95 186.65 32.69Q184.99 33.42 182.72 33.42Z"></path></g>
        
      </svg>